<svg width="197" height="156" viewBox="0 0 197 156" fill="none" xmlns="http://www.w3.org/2000/svg">
<path d="M116.88 78.9204C112.01 69.4439 99.1463 62.9925 89.2985 59.6678C79.4165 56.3317 64.4671 56.4982 56.8584 64.8739C46.7072 76.0486 55.6302 88.3496 66.5267 93.9492C76.5331 99.0915 91.3259 97.1453 100.93 91.7391C106.883 88.3881 113.052 85.2068 116.193 78.9204C117.193 76.9189 120.946 75.6841 123.064 74.5002C128.059 71.7064 130.572 63.4553 130.965 58.1453C131.578 49.8653 132.781 41.2914 132.781 32.9991C132.781 27.5302 134.233 18.6437 129.934 14.1885C113.299 -3.0536 80.1947 -3.38197 72.9067 22.145C70.9963 28.8364 74.4801 37.3785 76.6856 43.5585C77.5711 46.0397 78.6015 49.0546 80.1701 51.0729C81.1054 52.2763 81.9508 53.9252 81.0535 50.9747C80.1026 47.848 79.1026 44.6672 78.0107 41.594C74.2823 31.0999 71.5388 18.1518 58.5762 15.269C47.531 12.8127 33.9412 9.24298 24.3203 17.0371C6.85629 31.1852 25.4747 57.4606 43.5585 59.4714C46.3023 59.7765 48.7027 62.8516 51.509 63.0076C57.0808 63.3174 54.6816 64.4768 50.5766 61.1904C39.6637 52.4535 25.3796 52.1394 12.1491 52.399C7.71638 52.486 2.12714 56.6648 2.03923 61.2395C1.96228 65.2439 1.89337 69.32 2.92262 73.2232C3.8052 76.5702 5.9508 83.2885 8.71373 85.5508C11.8689 88.1342 17.2619 88.8542 20.983 90.413C25.3174 92.2288 29.9194 95.1922 34.6756 95.6682C38.8942 96.0904 44.6978 96.1727 47.9755 93.0652C49.7737 91.3603 52.3157 89.0629 53.4721 86.8768C54.613 84.7202 54.4601 86.332 53.7666 87.7609C52.3237 90.7337 50.7429 93.7146 49.2515 96.6996C47.1472 100.911 43.5585 107.705 43.5585 112.514C43.5585 119.135 47.1388 124.062 50.4293 129.508C56.0021 138.731 77.1821 146.103 86.0103 138.152C96.7332 128.494 100.095 119.624 100.095 105.442C100.095 102.471 100.998 97.6586 99.2121 95.0297C99.0061 94.7266 97.0343 92.8013 97.6416 93.9492C100.376 99.1176 102.141 104.774 104.611 110.108C110.935 123.766 115.017 138.276 127.53 147.483C135.816 153.581 143.709 156.573 153.295 151.216C159.867 147.543 165.962 140.591 167.037 132.847C167.654 128.4 166.677 123.811 167.429 119.39C168.025 115.889 168.542 112.151 168.067 108.585C167.808 106.64 165.935 100.499 164.141 99.3026C162.803 98.4097 161.748 97.3002 160.608 96.1593C158.649 94.1995 156.025 94.4257 153.786 93.0652C145.376 87.9555 135.878 85.1735 126.99 81.1305C125.822 80.5991 119.479 78.4987 118.303 78.9695C117.83 79.1591 122.403 81.0247 122.72 81.1305C129.044 83.2402 134.943 86.1706 141.124 88.6449C155.564 94.4254 173.112 101.326 185.784 88.6449C193.495 80.9289 200.166 63.6608 189.318 55.7387C183.911 51.7906 177.192 50.7196 170.767 49.5504C164.277 48.3695 157.9 46.2107 151.283 46.2107C144.821 46.2107 138.359 46.2107 131.897 46.2107" stroke="#1E1E1E" stroke-width="4" stroke-linecap="round" stroke-linejoin="round"/>
</svg>
