<svg width="129" height="125" viewBox="0 0 129 125" fill="none" xmlns="http://www.w3.org/2000/svg">
<path d="M50.6088 9.08836C41.3904 9.08836 34.2782 10.2552 26.3535 15.3399C16.3001 21.7905 11.1127 32.656 7.79378 43.5457C4.13452 55.5519 2 68.3561 2 80.858C2 93.1032 8.80822 101.71 18.9885 108.129C30.3861 115.314 45.3579 119.828 58.7103 122.059C71.252 124.155 82.8109 122.965 93.5221 116.3C103.954 109.808 111.212 101.004 116.845 90.063C122.355 79.3596 121.366 67.7159 124.406 56.541C125.752 51.5927 126.538 46.3192 126.615 41.1829C126.699 35.6809 127.845 28.4293 125.732 23.2651C123.808 18.5642 124.568 13.4685 120.429 9.97441C118.388 8.25154 114.403 9.16353 111.984 9.03914C108.592 8.86478 105.567 7.86775 102.311 7.36549C98.5066 6.77872 95.5707 5.85048 91.7054 4.65814C83.9279 2.25897 75.5211 3.12548 67.401 2.88604C63.6607 2.77576 59.8407 2 55.9116 2C52.051 2 48.9436 5.21462 45.3061 6.43022" stroke="#1E1E1E" stroke-width="4" stroke-linecap="round" stroke-linejoin="round"/>
<path d="M40 32V51" stroke="#1E1E1E" stroke-width="4" stroke-linecap="round" stroke-linejoin="round"/>
<path d="M77 29C80.1755 29.3707 78.6182 42.7573 78.6182 46" stroke="#1E1E1E" stroke-width="4" stroke-linecap="round" stroke-linejoin="round"/>
<path d="M41 74.6197C41 82.9989 50.436 87.5549 57.3255 87.5549C64.3583 87.5549 72.4456 88.6817 79.4016 87.3496C87.9132 85.7195 91 78.0685 91 70" stroke="#1E1E1E" stroke-width="4" stroke-linecap="round" stroke-linejoin="round"/>
</svg>
