<svg width="187" height="110" viewBox="0 0 187 110" fill="none" xmlns="http://www.w3.org/2000/svg">
<path d="M19.3781 36.4236C19.3781 46.0056 17.8766 54.4902 15.4419 63.7642C12.9244 73.354 11.5177 85.3502 6.09358 93.8536C4.26409 96.7217 3.7582 100.067 2.15743 103.033C0.743737 105.652 9.28286 103.678 10.5218 103.622C18.9391 103.24 27.433 103.573 35.8607 103.573C39.9896 103.573 45.1398 104.878 46.6359 100.235C48.8442 93.3809 48.9262 85.5962 51.4577 79.0298C52.7143 75.7704 58.5492 88.6387 59.4284 90.1231C61.7437 94.0321 64.1145 97.6573 67.0055 101.118C68.3885 102.774 68.9763 105.656 71.1385 106.272C72.2299 106.583 71.1552 108.341 72.9589 107.941C74.2666 107.651 75.7868 106.248 76.8459 105.585C81.4389 102.708 86.1568 100.132 91.1144 97.9277C99.8338 94.0511 108.773 90.3376 117.831 87.3253C121.375 86.1467 124.93 83.9361 128.606 83.3493C133.982 82.4913 129.469 77.2051 127.868 74.3667C124.894 69.092 121.737 63.9491 119.012 58.5121C117.379 55.2542 114.364 52.5523 112.96 49.284C112.696 48.6696 120.778 48.8314 121.078 48.8423C133.265 49.2844 145.443 50.1685 157.635 50.5112C160.308 50.5863 165.698 51.9724 166.836 48.7932C167.518 46.8897 168.587 45.2994 169.493 43.4919C172.315 37.8617 185.377 35.899 184.992 29.3553C184.908 27.9377 158.478 24.47 156.455 24.0541C142.936 21.275 129.582 18.4424 116.109 15.4151C112.35 14.5704 101.724 14.533 99.0851 11.2428C97.2577 8.96387 93.0395 9.95741 91.0652 7.65957C88.8967 5.13561 83.3616 2.50883 80.1424 2.01474C77.5921 1.62332 78.8509 9.14449 78.6664 10.801C78.0042 16.7461 77.2314 21.637 71.6305 24.7413C67.852 26.8355 57.1555 27.0615 52.8354 25.6248C51.6009 25.2143 49.3576 24.0799 48.604 22.9742C47.7983 21.7921 48.2681 19.8802 47.5216 18.9492C45.6788 16.6512 41.0402 22.6718 39.0588 23.8578C35.0319 26.2682 31.9244 28.8173 27.5456 30.4352C24.015 31.7398 24.5967 33.9155 22.9206 36.4236" stroke="#1E1E1E" stroke-width="4" stroke-linecap="round" stroke-linejoin="round"/>
</svg>
